<mxfile host="app.diagrams.net" modified="2022-01-12T07:15:52.841Z" agent="5.0 (Macintosh; Intel Mac OS X 10_15_7) AppleWebKit/537.36 (KHTML, like Gecko) Chrome/96.0.4664.110 Safari/537.36" etag="j3LGQv9h3pO9NePXRBXC" version="15.5.0" type="github">
  <diagram id="fYH3ScSCED2zXqdq1jgC" name="Page-1">
    <mxGraphModel dx="2253" dy="848" grid="1" gridSize="10" guides="1" tooltips="1" connect="1" arrows="1" fold="1" page="1" pageScale="1" pageWidth="827" pageHeight="1169" math="0" shadow="0">
      <root>
        <mxCell id="0" />
        <mxCell id="1" parent="0" />
        <mxCell id="MEsgESYLwJpQ1fE5VQMw-1" style="edgeStyle=orthogonalEdgeStyle;rounded=0;orthogonalLoop=1;jettySize=auto;html=1;" parent="1" source="RxBJGSgwvbAEE5JQGNw2-1" edge="1">
          <mxGeometry relative="1" as="geometry">
            <mxPoint x="-170" y="240" as="targetPoint" />
          </mxGeometry>
        </mxCell>
        <mxCell id="RxBJGSgwvbAEE5JQGNw2-1" value="获取任务接口&lt;br&gt;(&lt;span style=&quot;color: rgb(0 , 128 , 0) ; font-weight: bold ; background-color: rgb(255 , 255 , 255) ; font-family: &amp;#34;jetbrains mono&amp;#34; , monospace ; font-size: 10.5pt&quot;&gt;getAllTask&lt;/span&gt;&lt;span&gt;)&lt;/span&gt;" style="rounded=0;whiteSpace=wrap;html=1;" parent="1" vertex="1">
          <mxGeometry x="-230" y="110" width="120" height="60" as="geometry" />
        </mxCell>
        <mxCell id="MEsgESYLwJpQ1fE5VQMw-4" style="edgeStyle=orthogonalEdgeStyle;rounded=0;orthogonalLoop=1;jettySize=auto;html=1;" parent="1" source="MEsgESYLwJpQ1fE5VQMw-2" target="MEsgESYLwJpQ1fE5VQMw-3" edge="1">
          <mxGeometry relative="1" as="geometry" />
        </mxCell>
        <mxCell id="MEsgESYLwJpQ1fE5VQMw-2" value="缓存任务&lt;br&gt;(&lt;font color=&quot;#a9c4eb&quot;&gt;设备方&lt;/font&gt;)" style="rounded=0;whiteSpace=wrap;html=1;" parent="1" vertex="1">
          <mxGeometry x="-230" y="240" width="120" height="60" as="geometry" />
        </mxCell>
        <mxCell id="MEsgESYLwJpQ1fE5VQMw-7" style="edgeStyle=orthogonalEdgeStyle;rounded=0;orthogonalLoop=1;jettySize=auto;html=1;exitX=0;exitY=1;exitDx=0;exitDy=0;fontColor=#1A1A1A;" parent="1" source="MEsgESYLwJpQ1fE5VQMw-3" edge="1">
          <mxGeometry relative="1" as="geometry">
            <mxPoint x="-300" y="470" as="targetPoint" />
            <Array as="points">
              <mxPoint x="-170" y="420" />
              <mxPoint x="-170" y="450" />
              <mxPoint x="-300" y="450" />
            </Array>
          </mxGeometry>
        </mxCell>
        <mxCell id="MEsgESYLwJpQ1fE5VQMw-14" style="edgeStyle=orthogonalEdgeStyle;rounded=0;orthogonalLoop=1;jettySize=auto;html=1;exitX=1;exitY=1;exitDx=0;exitDy=0;fontColor=#1A1A1A;" parent="1" source="MEsgESYLwJpQ1fE5VQMw-3" edge="1">
          <mxGeometry relative="1" as="geometry">
            <mxPoint x="-100" y="270" as="targetPoint" />
            <Array as="points">
              <mxPoint x="-170" y="420" />
              <mxPoint x="-170" y="450" />
              <mxPoint x="-10" y="450" />
              <mxPoint x="-10" y="270" />
            </Array>
          </mxGeometry>
        </mxCell>
        <mxCell id="MEsgESYLwJpQ1fE5VQMw-3" value="任务状态检查接口&lt;br&gt;(&lt;span style=&quot;color: rgb(0 , 128 , 0) ; font-weight: bold ; background-color: rgb(255 , 255 , 255) ; font-family: &amp;#34;jetbrains mono&amp;#34; , monospace ; font-size: 10.5pt&quot;&gt;checkTaskStatus&lt;/span&gt;&lt;span&gt;)&lt;/span&gt;" style="rounded=0;whiteSpace=wrap;html=1;" parent="1" vertex="1">
          <mxGeometry x="-230" y="360" width="120" height="60" as="geometry" />
        </mxCell>
        <mxCell id="MEsgESYLwJpQ1fE5VQMw-5" value="取出任务A检查可用性" style="rounded=1;whiteSpace=wrap;html=1;" parent="1" vertex="1">
          <mxGeometry x="-160" y="320" width="120" height="20" as="geometry" />
        </mxCell>
        <mxCell id="MEsgESYLwJpQ1fE5VQMw-8" value="任务可用" style="text;html=1;align=center;verticalAlign=middle;resizable=0;points=[];autosize=1;strokeColor=none;fillColor=none;fontColor=#1A1A1A;" parent="1" vertex="1">
          <mxGeometry x="-300" y="420" width="60" height="20" as="geometry" />
        </mxCell>
        <mxCell id="MEsgESYLwJpQ1fE5VQMw-17" value="任务不可用" style="text;html=1;align=center;verticalAlign=middle;resizable=0;points=[];autosize=1;strokeColor=none;fillColor=none;fontColor=#FF3333;" parent="1" vertex="1">
          <mxGeometry x="-100" y="420" width="80" height="20" as="geometry" />
        </mxCell>
        <mxCell id="MEsgESYLwJpQ1fE5VQMw-19" value="存缓存接口&lt;br&gt;(&lt;span style=&quot;color: rgb(0 , 128 , 0) ; font-weight: bold ; background-color: rgb(255 , 255 , 255) ; font-family: &amp;#34;jetbrains mono&amp;#34; , monospace ; font-size: 10.5pt&quot;&gt;approve&lt;/span&gt;&lt;span&gt;)&lt;br&gt;展示总次数+1&lt;br&gt;&lt;/span&gt;" style="rounded=0;whiteSpace=wrap;html=1;fontColor=#1A1A1A;" parent="1" vertex="1">
          <mxGeometry x="-360" y="470" width="120" height="60" as="geometry" />
        </mxCell>
        <mxCell id="MEsgESYLwJpQ1fE5VQMw-20" value="" style="curved=1;endArrow=classic;html=1;rounded=0;fontColor=#1A1A1A;edgeStyle=isometricEdgeStyle;startArrow=none;" parent="1" source="MEsgESYLwJpQ1fE5VQMw-27" edge="1">
          <mxGeometry width="50" height="50" relative="1" as="geometry">
            <mxPoint x="-410" y="510" as="sourcePoint" />
            <mxPoint x="-530" y="300" as="targetPoint" />
            <Array as="points" />
          </mxGeometry>
        </mxCell>
        <mxCell id="MEsgESYLwJpQ1fE5VQMw-26" style="edgeStyle=orthogonalEdgeStyle;rounded=0;orthogonalLoop=1;jettySize=auto;html=1;exitX=0.5;exitY=1;exitDx=0;exitDy=0;fontColor=#1A1A1A;" parent="1" source="MEsgESYLwJpQ1fE5VQMw-21" edge="1">
          <mxGeometry relative="1" as="geometry">
            <mxPoint x="-470" y="570" as="targetPoint" />
          </mxGeometry>
        </mxCell>
        <mxCell id="MEsgESYLwJpQ1fE5VQMw-21" value="前端HTML&lt;br&gt;(缓存channelCode,orderId,跳转到参数URL)" style="rounded=0;whiteSpace=wrap;html=1;fontColor=#1A1A1A;" parent="1" vertex="1">
          <mxGeometry x="-530" y="270" width="120" height="60" as="geometry" />
        </mxCell>
        <mxCell id="MEsgESYLwJpQ1fE5VQMw-23" value="channelCode,orderId,url" style="rounded=1;whiteSpace=wrap;html=1;fontColor=#1A1A1A;" parent="1" vertex="1">
          <mxGeometry x="-670" y="420" width="160" height="20" as="geometry" />
        </mxCell>
        <mxCell id="MEsgESYLwJpQ1fE5VQMw-27" value="跳转" style="text;html=1;align=center;verticalAlign=middle;resizable=0;points=[];autosize=1;strokeColor=none;fillColor=none;fontColor=#1A1A1A;" parent="1" vertex="1">
          <mxGeometry x="-400" y="500" width="40" height="20" as="geometry" />
        </mxCell>
        <mxCell id="MEsgESYLwJpQ1fE5VQMw-28" value="" style="curved=1;endArrow=none;html=1;rounded=0;fontColor=#1A1A1A;edgeStyle=isometricEdgeStyle;" parent="1" target="MEsgESYLwJpQ1fE5VQMw-27" edge="1">
          <mxGeometry width="50" height="50" relative="1" as="geometry">
            <mxPoint x="-410" y="510" as="sourcePoint" />
            <mxPoint x="-530" y="300" as="targetPoint" />
            <Array as="points">
              <mxPoint x="-350.74" y="510" />
              <mxPoint x="-400.74" y="460" />
            </Array>
          </mxGeometry>
        </mxCell>
        <mxCell id="MEsgESYLwJpQ1fE5VQMw-30" style="edgeStyle=orthogonalEdgeStyle;rounded=0;orthogonalLoop=1;jettySize=auto;html=1;exitX=0.5;exitY=1;exitDx=0;exitDy=0;fontColor=#1A1A1A;" parent="1" source="MEsgESYLwJpQ1fE5VQMw-29" edge="1">
          <mxGeometry relative="1" as="geometry">
            <mxPoint x="-540" y="700" as="targetPoint" />
          </mxGeometry>
        </mxCell>
        <mxCell id="MEsgESYLwJpQ1fE5VQMw-31" style="edgeStyle=orthogonalEdgeStyle;rounded=0;orthogonalLoop=1;jettySize=auto;html=1;exitX=0.5;exitY=1;exitDx=0;exitDy=0;fontColor=#1A1A1A;" parent="1" source="MEsgESYLwJpQ1fE5VQMw-29" target="MEsgESYLwJpQ1fE5VQMw-36" edge="1">
          <mxGeometry relative="1" as="geometry">
            <mxPoint x="-410" y="700" as="targetPoint" />
          </mxGeometry>
        </mxCell>
        <mxCell id="MEsgESYLwJpQ1fE5VQMw-29" value="设备方页面&lt;br&gt;(展示二维码引导用户扫码)" style="rounded=0;whiteSpace=wrap;html=1;fontColor=#1A1A1A;" parent="1" vertex="1">
          <mxGeometry x="-533" y="570" width="120" height="60" as="geometry" />
        </mxCell>
        <mxCell id="MEsgESYLwJpQ1fE5VQMw-32" value="扫码" style="text;html=1;align=center;verticalAlign=middle;resizable=0;points=[];autosize=1;strokeColor=none;fillColor=none;fontColor=#1A1A1A;" parent="1" vertex="1">
          <mxGeometry x="-520" y="640" width="40" height="20" as="geometry" />
        </mxCell>
        <mxCell id="MEsgESYLwJpQ1fE5VQMw-33" value="未扫码" style="text;html=1;align=center;verticalAlign=middle;resizable=0;points=[];autosize=1;strokeColor=none;fillColor=none;fontColor=#1A1A1A;" parent="1" vertex="1">
          <mxGeometry x="-470" y="640" width="50" height="20" as="geometry" />
        </mxCell>
        <mxCell id="MEsgESYLwJpQ1fE5VQMw-39" style="edgeStyle=orthogonalEdgeStyle;rounded=0;orthogonalLoop=1;jettySize=auto;html=1;exitX=0.5;exitY=1;exitDx=0;exitDy=0;fontColor=#1A1A1A;" parent="1" source="MEsgESYLwJpQ1fE5VQMw-34" edge="1">
          <mxGeometry relative="1" as="geometry">
            <mxPoint x="-600" y="830" as="targetPoint" />
          </mxGeometry>
        </mxCell>
        <mxCell id="MEsgESYLwJpQ1fE5VQMw-41" style="edgeStyle=orthogonalEdgeStyle;rounded=0;orthogonalLoop=1;jettySize=auto;html=1;exitX=0.5;exitY=1;exitDx=0;exitDy=0;fontColor=#1A1A1A;" parent="1" source="MEsgESYLwJpQ1fE5VQMw-34" target="MEsgESYLwJpQ1fE5VQMw-42" edge="1">
          <mxGeometry relative="1" as="geometry">
            <mxPoint x="-480" y="830" as="targetPoint" />
          </mxGeometry>
        </mxCell>
        <mxCell id="MEsgESYLwJpQ1fE5VQMw-34" value="弹出公众号展示页面&lt;br&gt;(关注按钮)" style="rounded=0;whiteSpace=wrap;html=1;fontColor=#1A1A1A;" parent="1" vertex="1">
          <mxGeometry x="-600" y="700" width="120" height="60" as="geometry" />
        </mxCell>
        <mxCell id="MEsgESYLwJpQ1fE5VQMw-36" value="无效展示" style="rounded=0;whiteSpace=wrap;html=1;fontColor=#1A1A1A;" parent="1" vertex="1">
          <mxGeometry x="-470" y="700" width="120" height="60" as="geometry" />
        </mxCell>
        <mxCell id="MEsgESYLwJpQ1fE5VQMw-46" style="edgeStyle=orthogonalEdgeStyle;rounded=0;orthogonalLoop=1;jettySize=auto;html=1;exitX=0.5;exitY=1;exitDx=0;exitDy=0;fontColor=#1A1A1A;" parent="1" source="MEsgESYLwJpQ1fE5VQMw-40" edge="1">
          <mxGeometry relative="1" as="geometry">
            <mxPoint x="-600" y="950" as="targetPoint" />
          </mxGeometry>
        </mxCell>
        <mxCell id="MEsgESYLwJpQ1fE5VQMw-40" value="后台自动回复关注的用户(记录openid,去重)" style="rounded=0;whiteSpace=wrap;html=1;fontColor=#1A1A1A;" parent="1" vertex="1">
          <mxGeometry x="-660" y="830" width="120" height="60" as="geometry" />
        </mxCell>
        <mxCell id="MEsgESYLwJpQ1fE5VQMw-42" value="无效展示" style="rounded=0;whiteSpace=wrap;html=1;fontColor=#1A1A1A;" parent="1" vertex="1">
          <mxGeometry x="-530" y="830" width="120" height="60" as="geometry" />
        </mxCell>
        <mxCell id="MEsgESYLwJpQ1fE5VQMw-43" value="点击关注" style="text;html=1;align=center;verticalAlign=middle;resizable=0;points=[];autosize=1;strokeColor=none;fillColor=none;fontColor=#1A1A1A;" parent="1" vertex="1">
          <mxGeometry x="-610" y="770" width="60" height="20" as="geometry" />
        </mxCell>
        <mxCell id="MEsgESYLwJpQ1fE5VQMw-44" value="未点击关注" style="text;html=1;align=center;verticalAlign=middle;resizable=0;points=[];autosize=1;strokeColor=none;fillColor=none;fontColor=#1A1A1A;" parent="1" vertex="1">
          <mxGeometry x="-540" y="770" width="80" height="20" as="geometry" />
        </mxCell>
        <mxCell id="MEsgESYLwJpQ1fE5VQMw-48" value="传递openid,结算状态,签名信息,给设备方用于出货" style="rounded=0;whiteSpace=wrap;html=1;fontColor=#1A1A1A;" parent="1" vertex="1">
          <mxGeometry x="-660" y="950" width="120" height="60" as="geometry" />
        </mxCell>
      </root>
    </mxGraphModel>
  </diagram>
</mxfile>
